<svg xmlns="http://www.w3.org/2000/svg" class="svg_color" width="28" height="28" fill="#bb8961">
<g>
<title>Layer 1</title>
<path transform="rotate(-90.3604 13.957 13.9458)" stroke="#000" id="svg_4" d="m5.61359,12.8898l16.68691,0l0,0c2.18603,0 3.95816,0.47278 3.95816,1.05597c0,0.5832 -1.77213,1.05597 -3.95816,1.05597l-16.68691,0l0,0c-2.18603,0 -3.95816,-0.47278 -3.95816,-1.05597c0,-0.5832 1.77213,-1.05597 3.95816,-1.05597z" stroke-width="0.1" fill="currentColor"/>
<path transform="rotate(-90.3604 8.70677 14.0141)" stroke="#000" id="svg_5" d="m3.09812,12.95816l11.21729,0l0,0c1.46949,0 2.66076,0.47278 2.66076,1.05598c0,0.58319 -1.19126,1.05597 -2.66076,1.05597l-11.21729,0l0,0c-1.4695,0 -2.66076,-0.47278 -2.66076,-1.05597c0,-0.5832 1.19126,-1.05598 2.66076,-1.05598z" stroke-width="0.1" fill="currentColor"/>
<path transform="rotate(-90.3604 19.6194 14.0802)" stroke="#000" id="svg_6" d="m14.01077,13.0243l11.21729,0l0,0c1.46949,0 2.66075,0.47278 2.66075,1.05598c0,0.58319 -1.19126,1.05597 -2.66075,1.05597l-11.21729,0l0,0c-1.4695,0 -2.66075,-0.47278 -2.66075,-1.05597c0,-0.5832 1.19125,-1.05598 2.66075,-1.05598z" stroke-width="0.1" fill="currentColor"/>
<path transform="rotate(-90.3604 3.96551 14.8399)" stroke="#000" id="svg_7" d="m0.57668,13.78388l6.77766,0l0,0c0.88789,0 1.60767,0.47278 1.60767,1.05598c0,0.58319 -0.71978,1.05597 -1.60767,1.05597l-6.77766,0l0,0c-0.88789,0 -1.60767,-0.47278 -1.60767,-1.05597c0,-0.5832 0.71977,-1.05598 1.60767,-1.05598z" stroke-width="0.1" fill="currentColor"/>
<path transform="rotate(-90.3604 24.7988 14.906)" stroke="#000" id="svg_8" d="m21.40993,13.85002l6.77766,0l0,0c0.88788,0 1.60766,0.47278 1.60766,1.05598c0,0.58319 -0.71978,1.05597 -1.60766,1.05597l-6.77766,0l0,0c-0.8879,0 -1.60767,-0.47278 -1.60767,-1.05597c0,-0.5832 0.71977,-1.05598 1.60767,-1.05598z" stroke-width="0.1" fill="currentColor"/>
</g>

</svg>